<?xml version="1.0" standalone="no"?>
<!DOCTYPE svg PUBLIC "-//W3C//DTD SVG 20010904//EN"
 "http://www.w3.org/TR/2001/REC-SVG-20010904/DTD/svg10.dtd">
<svg version="1.0" xmlns="http://www.w3.org/2000/svg"
 width="700.000000pt" height="700.000000pt" viewBox="0 0 700.000000 700.000000"
 preserveAspectRatio="xMidYMid meet">
<metadata>
Created by potrace 1.11, written by Peter Selinger 2001-2013
</metadata>
<g transform="translate(0.000000,700.000000) scale(0.100000,-0.100000)"
fill="#000000" stroke="none">
<path d="M2047 6758 c-106 -134 -610 -768 -1120 -1410 l-927 -1167 2 -258 3
-259 390 492 c215 271 392 493 395 493 3 0 231 -350 508 -779 l503 -779 -901
-1469 -900 -1470 0 -76 0 -76 148 0 147 1 504 824 505 824 26 -47 c15 -26 210
-391 435 -812 224 -421 413 -771 420 -778 8 -9 56 -12 193 -10 l182 3 -517
965 c-284 531 -521 976 -526 990 -9 23 15 66 233 422 134 219 246 395 250 393
4 -2 141 -213 306 -469 164 -255 302 -461 306 -458 4 4 252 486 552 1071 300
585 547 1065 549 1068 4 3 1354 -1182 1570 -1377 5 -4 -354 -592 -797 -1305
-443 -713 -806 -1299 -806 -1301 0 -2 87 -4 193 -4 l192 0 370 596 c203 327
373 598 377 600 4 2 217 -266 474 -596 l468 -600 209 0 c166 0 207 3 200 13
-6 6 -266 340 -578 742 -312 402 -572 735 -577 742 -7 8 73 144 253 435 144
233 267 428 273 435 8 8 89 -57 321 -263 171 -150 313 -274 316 -274 8 0 -28
-80 430 959 l399 904 -1 516 0 516 -1325 1135 -1324 1135 -252 3 c-215 2 -250
0 -238 -11 8 -8 171 -148 363 -311 191 -164 345 -301 344 -304 -2 -4 -451
-879 -997 -1945 -546 -1066 -994 -1936 -995 -1935 -12 14 -1557 2413 -1561
2423 -3 7 347 456 809 1038 448 563 817 1029 821 1035 5 9 -45 12 -198 12
l-206 0 -193 -242z m3848 -1518 c567 -486 1032 -884 1034 -886 7 -6 -867
-1979 -877 -1979 -14 0 -2183 1917 -2180 1926 2 4 217 424 478 933 471 920
474 925 495 907 11 -10 484 -415 1050 -901z"/>
</g>
</svg>
